<?xml version="1.0" encoding="utf-8"?>
<!-- Generator: Adobe Illustrator 15.0.0, SVG Export Plug-In . SVG Version: 6.00 Build 0)  -->
<!DOCTYPE svg PUBLIC "-//W3C//DTD SVG 1.0//EN" "http://www.w3.org/TR/2001/REC-SVG-20010904/DTD/svg10.dtd">
<svg version="1.0" xmlns="http://www.w3.org/2000/svg" xmlns:xlink="http://www.w3.org/1999/xlink" x="0px" y="0px" width="432px"
	 height="268px" viewBox="0 0 432 268" enable-background="new 0 0 432 268" xml:space="preserve">
<g id="Layer_1">
	<g>
		<path fill="#E11937" d="M138.245,91.201c-27.399,0-44.199,21.399-44.199,42.999c0,26,21.2,42.999,44.399,42.999
			c15.399,0,30-6.799,42.399-17.799V191.6c-13,7.8-30.8,12.6-44.6,12.6c-39.599,0-72.799-32.199-72.799-69.999
			c0-39.999,33.399-69.999,72.999-69.999c15.2,0,33,4.6,44.599,10.4v31.599C166.444,96.601,151.645,91.201,138.245,91.201z"/>
		<path fill="#E11937" d="M265.025,204.199c-39.799,0-73.398-31-73.398-69.999c0-39.399,33.4-69.999,75.199-69.999
			c15.199,0,34,4,45.6,9.4v31.399c-13.199-7.6-30.199-13.8-45-13.8c-27.398,0-45.199,21.399-45.199,42.999
			c0,25.399,21,43.8,45.6,43.8c5.199,0,10.199-0.4,16.6-2.801V150h-22.398v-26.6h51.199v70.799
			C298.625,200.8,282.227,204.199,265.025,204.199z"/>
		<path fill="#E11937" d="M335.59,201.399V67.001h28.799v134.398H335.59z"/>
	</g>
</g>
<g id="Protection">
</g>
<g id="Guides">
</g>
</svg>
